<svg width="1420" height="702" viewBox="0 0 1420 702" fill="none" xmlns="http://www.w3.org/2000/svg">
<path fill-rule="evenodd" clip-rule="evenodd" d="M574.5 46.9999C615 5.99994 672 58.9999 651.5 98.4999L623 145.5C584.5 187 519.5 147.5 545 92.5L574.5 46.9999ZM593.5 64.4999C608.5 48.4999 638 68.4999 629 87.4999L602 131C585.5 147.5 555 129 566.5 105.5L593.5 64.4999Z" fill="#202020"/>
<path d="M590 145.5C601 128 572.5 108 558 128L528 180C517 201 545 218 559.5 198.5L590 145.5Z" fill="#202020"/>
<path fill-rule="evenodd" clip-rule="evenodd" d="M1377.56 497.509C1363.23 553.329 1287.29 536.261 1285.1 491.812L1286.05 436.854C1298.4 381.61 1374.45 382.986 1380.12 443.343L1377.56 497.509ZM1352.33 491.963C1347.44 513.341 1311.88 510.926 1310.08 489.979L1311.49 438.801C1317.43 416.235 1353.1 416.851 1355 442.944L1352.33 491.963Z" fill="#202020"/>
<path d="M1314.51 419.59C1313.13 440.214 1347.7 444.305 1350.98 419.82L1352.73 359.812C1352.46 336.107 1319.74 334.421 1316.23 358.465L1314.51 419.59Z" fill="#202020"/>
<path fill-rule="evenodd" clip-rule="evenodd" d="M1381.21 344.753C1366.88 400.573 1290.94 383.505 1288.75 339.057L1289.69 284.099C1302.04 228.854 1378.09 230.23 1383.77 290.587L1381.21 344.753ZM1355.98 339.208C1351.08 360.586 1315.52 358.171 1313.72 337.224L1315.13 286.045C1321.07 263.479 1356.74 264.095 1358.65 290.189L1355.98 339.208Z" fill="#202020"/>
<path d="M1318.15 266.835C1316.77 287.458 1351.35 291.549 1354.63 267.064L1356.37 207.057C1356.1 183.352 1323.39 181.665 1319.87 205.709L1318.15 266.835Z" fill="#202020"/>
<path fill-rule="evenodd" clip-rule="evenodd" d="M1377.56 497.509C1363.23 553.329 1287.29 536.261 1285.1 491.812L1286.05 436.854C1298.4 381.61 1374.45 382.986 1380.12 443.343L1377.56 497.509ZM1352.33 491.963C1347.44 513.341 1311.88 510.926 1310.08 489.979L1311.49 438.801C1317.43 416.235 1353.1 416.851 1355 442.944L1352.33 491.963Z" fill="#202020"/>
<path d="M1314.51 419.59C1313.13 440.214 1347.7 444.305 1350.98 419.82L1352.73 359.812C1352.46 336.107 1319.74 334.421 1316.23 358.465L1314.51 419.59Z" fill="#202020"/>
<path fill-rule="evenodd" clip-rule="evenodd" d="M1381.21 344.753C1366.88 400.573 1290.94 383.505 1288.75 339.057L1289.69 284.099C1302.04 228.854 1378.09 230.23 1383.77 290.587L1381.21 344.753ZM1355.98 339.208C1351.08 360.586 1315.52 358.171 1313.72 337.224L1315.13 286.045C1321.07 263.479 1356.74 264.095 1358.65 290.189L1355.98 339.208Z" fill="#202020"/>
<path d="M1318.15 266.835C1316.77 287.458 1351.35 291.549 1354.63 267.064L1356.37 207.057C1356.1 183.352 1323.39 181.665 1319.87 205.709L1318.15 266.835Z" fill="#202020"/>
<path fill-rule="evenodd" clip-rule="evenodd" d="M1377.21 647.723C1362.88 703.543 1286.94 686.475 1284.75 642.027L1285.69 587.069C1298.04 531.824 1374.09 533.2 1379.77 593.557L1377.21 647.723ZM1351.98 642.178C1347.08 663.556 1311.52 661.141 1309.72 640.194L1311.13 589.015C1317.07 566.449 1352.74 567.065 1354.65 593.159L1351.98 642.178Z" fill="#202020"/>
<path d="M1314.15 569.805C1312.77 590.428 1347.35 594.519 1350.63 570.035L1352.37 510.027C1352.1 486.322 1319.39 484.635 1315.87 508.679L1314.15 569.805Z" fill="#202020"/>
<path fill-rule="evenodd" clip-rule="evenodd" d="M1381.21 194.723C1366.88 250.543 1290.95 233.475 1288.76 189.027L1289.7 134.069C1302.05 78.8242 1378.1 80.2001 1383.78 140.557L1381.21 194.723ZM1355.99 189.178C1351.09 210.556 1315.53 208.141 1313.73 187.194L1315.14 136.015C1321.08 113.449 1356.75 114.065 1358.65 140.159L1355.99 189.178Z" fill="#202020"/>
<path d="M1318.16 116.805C1316.78 137.428 1351.36 141.519 1354.64 117.034L1356.38 57.0266C1356.11 33.3217 1323.4 31.6349 1319.88 55.6793L1318.16 116.805Z" fill="#202020"/>
<path fill-rule="evenodd" clip-rule="evenodd" d="M1214.56 312.753C1200.23 368.573 1124.29 351.505 1122.1 307.057L1123.05 252.099C1135.4 196.854 1211.45 198.23 1217.12 258.587L1214.56 312.753ZM1189.33 307.208C1184.44 328.586 1148.88 326.171 1147.08 305.224L1148.49 254.045C1154.43 231.479 1190.1 232.095 1192 258.189L1189.33 307.208Z" fill="#202020"/>
<path d="M1151.51 234.835C1150.13 255.458 1184.7 259.549 1187.98 235.064L1189.73 175.057C1189.46 151.352 1156.74 149.665 1153.23 173.709L1151.51 234.835Z" fill="#202020"/>
<path fill-rule="evenodd" clip-rule="evenodd" d="M1214.56 312.753C1200.23 368.573 1124.29 351.505 1122.1 307.057L1123.05 252.099C1135.4 196.854 1211.45 198.23 1217.12 258.587L1214.56 312.753ZM1189.33 307.208C1184.44 328.586 1148.88 326.171 1147.08 305.224L1148.49 254.045C1154.43 231.479 1190.1 232.095 1192 258.189L1189.33 307.208Z" fill="#202020"/>
<path d="M1151.51 234.835C1150.13 255.458 1184.7 259.549 1187.98 235.064L1189.73 175.057C1189.46 151.352 1156.74 149.665 1153.23 173.709L1151.51 234.835Z" fill="#202020"/>
<path fill-rule="evenodd" clip-rule="evenodd" d="M1214.57 162.723C1200.24 218.543 1124.3 201.475 1122.11 157.027L1123.06 102.069C1135.41 46.8242 1211.45 48.2001 1217.13 108.557L1214.57 162.723ZM1189.34 157.178C1184.45 178.556 1148.89 176.141 1147.09 155.194L1148.5 104.015C1154.44 81.4494 1190.11 82.0652 1192.01 108.159L1189.34 157.178Z" fill="#202020"/>
<path d="M1151.52 84.8046C1150.14 105.428 1184.71 109.519 1187.99 85.0344L1189.74 25.0266C1189.47 1.32168 1156.75 -0.365055 1153.24 23.6793L1151.52 84.8046Z" fill="#202020"/>
<path fill-rule="evenodd" clip-rule="evenodd" d="M505.238 167.906C554.455 137.925 596.936 203.143 567.486 236.509L528.459 275.215C481.061 306.165 427.552 252.109 465.604 204.915L505.238 167.906ZM519.438 189.483C537.864 177.589 561.647 204.133 548.317 220.391L511.593 256.064C491.59 268.081 466.473 242.75 483.319 222.731L519.438 189.483Z" fill="#202020"/>
<path d="M495.447 265.025C511.689 252.241 491.57 223.825 471.191 237.787L425.458 276.677C408.039 292.758 428.695 318.18 448.906 304.689L495.447 265.025Z" fill="#202020"/>
<path fill-rule="evenodd" clip-rule="evenodd" d="M405.092 260.964C460.401 244.773 484.514 318.777 447.419 343.363L399.69 370.624C345.887 388.223 308.227 322.14 357.216 286.428L405.092 260.964ZM413.21 285.486C434.091 278.777 450.176 310.581 433.086 322.825L388.367 347.754C365.932 354.172 348.244 323.194 369.705 308.229L413.21 285.486Z" fill="#202020"/>
<path d="M370.449 352.222C389.451 344.087 377.39 311.426 354.087 319.625L299.833 345.324C278.84 356.337 292.196 386.247 315.214 378.459L370.449 352.222Z" fill="#202020"/>
<path fill-rule="evenodd" clip-rule="evenodd" d="M288.272 320.126C345.84 322.81 344.566 400.632 301.491 411.813L247.489 422.064C190.887 421.201 176.775 346.461 234.717 328.63L288.272 320.126ZM287.972 345.956C309.899 346.404 314.763 381.712 294.618 387.73L244.222 396.754C220.92 395.524 214.272 360.477 239.433 353.308L287.972 345.956Z" fill="#202020"/>
<path d="M225.826 395.15C246.44 393.639 245.661 358.831 220.958 359.003L161.295 365.654C137.861 369.238 140.76 401.866 165.06 401.99L225.826 395.15Z" fill="#202020"/>
<path fill-rule="evenodd" clip-rule="evenodd" d="M160.397 340.725C209.578 370.766 171.03 438.383 127.887 427.468L75.6116 410.481C26.4015 382.502 49.9761 310.186 109.353 322.422L160.397 340.725ZM147.71 363.226C166.718 374.165 154.001 407.46 133.445 403.047L84.9204 386.72C65.0819 374.435 76.1102 340.51 101.618 346.326L147.71 363.226Z" fill="#202020"/>
<path d="M69.5634 376.465C88.3635 385.056 104.422 354.164 82.6814 342.434L27.1732 319.568C4.90379 311.439 -8.24719 341.44 12.9978 353.236L69.5634 376.465Z" fill="#202020"/>
</svg>
